<svg xmlns="http://www.w3.org/2000/svg" xmlns:xlink="http://www.w3.org/1999/xlink" width="1920" zoomAndPan="magnify" viewBox="0 0 1440 809.999993" height="1080" preserveAspectRatio="xMidYMid meet" version="1.0"><defs><clipPath id="7662a92b2d"><path d="M 1356.335938 729 L 1440 729 L 1440 789 L 1356.335938 789 Z M 1356.335938 729 " clip-rule="nonzero"/></clipPath><clipPath id="af742b4446"><path d="M 1249.363281 729 L 1333.363281 729 L 1333.363281 789 L 1249.363281 789 Z M 1249.363281 729 " clip-rule="nonzero"/></clipPath></defs><path fill="#fc3232" d="M 467.238281 725.460938 C 476.046875 663.5 510.59375 602.824219 560.972656 565.660156 C 611.347656 528.496094 676.859375 512.585938 738.644531 522.464844 C 762.691406 526.308594 786.902344 534.34375 804.75 550.898438 C 832.597656 576.726562 839.722656 617.5625 859.375 650.070312 C 889.667969 700.191406 952.636719 721.960938 1010.410156 724.925781 " fill-opacity="1" fill-rule="nonzero"/><path fill="#ff5555" d="M 771.625 724.328125 C 765.433594 673.605469 774.015625 614.953125 798.28125 569.988281 C 822.550781 525.027344 862.773438 488.394531 910.746094 470.808594 C 958.71875 453.222656 1014.109375 455.476562 1059.398438 479.132812 C 1095.867188 498.191406 1124.523438 529.84375 1146.171875 564.847656 C 1167.824219 599.855469 1219.15625 686.757812 1234.234375 725.0625 " fill-opacity="1" fill-rule="nonzero"/><path fill="#ff8585" d="M 1472.160156 259.9375 C 1462.175781 256.757812 1451.003906 259.894531 1442.433594 265.90625 C 1433.867188 271.917969 1427.449219 280.5 1421.609375 289.199219 C 1404.050781 315.335938 1390.214844 343.804688 1373.011719 370.179688 C 1355.808594 396.554688 1334.546875 421.367188 1306.585938 435.839844 C 1270.570312 454.480469 1227.636719 454.019531 1189.695312 468.339844 C 1144.179688 485.523438 1108.746094 523.183594 1084.757812 565.511719 C 1060.765625 607.839844 1046.921875 655.023438 1033.277344 701.714844 C 1031.339844 708.351562 1029.574219 715.757812 1032.753906 721.898438 C 1034.523438 725.3125 1050.164062 725.3125 1059.179688 725.3125 C 1180.328125 725.3125 1298.914062 725.742188 1420.171875 725.355469 C 1434.269531 725.3125 1471.691406 725.421875 1471.691406 725.421875 C 1471.691406 725.421875 1471.824219 683.144531 1471.652344 665.96875 C 1470.269531 527.292969 1472.894531 398.960938 1471.511719 260.285156 " fill-opacity="1" fill-rule="nonzero"/><path fill="#ffcfcf" d="M 1454.683594 725.867188 C 1461 708.109375 1462.425781 688.699219 1460.867188 670.015625 C 1459.265625 650.828125 1454.554688 631.460938 1445.265625 614.496094 C 1425.945312 579.210938 1386.570312 556.046875 1347.710938 549.339844 C 1250.585938 532.589844 1167.511719 608.992188 1071.332031 605.789062 C 1049.46875 605.054688 1027.851562 599.699219 1009.144531 588.117188 C 994.035156 578.761719 981.496094 565.964844 970.359375 552.242188 C 948.316406 525.082031 931.148438 493.441406 904.207031 470.542969 C 890.117188 458.566406 873.703125 449.671875 855.65625 445.386719 C 835.070312 440.5 813.414062 441.207031 792.839844 445.808594 C 749.1875 455.578125 713.238281 483.296875 684.964844 517.058594 C 655.035156 552.796875 633.300781 594.316406 605.53125 631.617188 C 578.570312 667.832031 544.058594 700.179688 500.328125 714.40625 C 489.84375 717.832031 479.105469 720.058594 468.125 721.085938 C 464.9375 721.378906 464.90625 726.394531 468.125 726.097656 C 510.265625 722.191406 548.21875 700.4375 578.078125 671.191406 C 611.59375 638.367188 634.484375 596.949219 660.480469 558.371094 C 685.191406 521.6875 714.457031 485.988281 754.355469 465.1875 C 792.207031 445.445312 840.699219 439.078125 879.546875 459.683594 C 910.871094 476.300781 930.644531 506.722656 950.84375 534.6875 C 971.359375 563.117188 994.289062 590.507812 1028.207031 602.894531 C 1069.789062 618.078125 1116.351562 609.617188 1157.355469 596.773438 C 1203.179688 582.410156 1246.859375 560.367188 1294.894531 553.832031 C 1339.261719 547.820312 1385.207031 558.417969 1418.664062 589.261719 C 1433.546875 602.988281 1444.128906 619.597656 1449.988281 638.988281 C 1452.839844 648.480469 1454.75 658.160156 1455.71875 668.027344 C 1456.6875 677.890625 1456.695312 687.757812 1455.742188 697.625 C 1454.886719 706.835938 1452.925781 715.804688 1449.863281 724.535156 C 1448.777344 727.574219 1453.617188 728.875 1454.691406 725.871094 Z M 1454.683594 725.867188 " fill-opacity="1" fill-rule="nonzero"/><path fill="#ffcfcf" d="M 1111.578125 477.746094 C 1126.566406 455.164062 1154.277344 445.972656 1179.878906 442.234375 C 1211.757812 437.582031 1244.945312 440.65625 1275.679688 429.375 C 1302.960938 419.355469 1324.804688 399.152344 1342.40625 376.542969 C 1361.296875 352.285156 1375.652344 325.011719 1392.398438 299.320312 C 1401.003906 286.128906 1410.277344 273.335938 1421.050781 261.824219 C 1430.902344 251.300781 1442.410156 241.394531 1456.203125 236.539062 C 1459.636719 235.332031 1463.152344 234.464844 1466.753906 233.933594 C 1468.089844 233.738281 1468.820312 232.046875 1468.503906 230.855469 C 1468.125 229.414062 1466.753906 228.90625 1465.421875 229.105469 C 1450.566406 231.296875 1437.492188 239.542969 1426.496094 249.425781 C 1414.980469 259.78125 1405.195312 272.058594 1396.28125 284.675781 C 1378.1875 310.28125 1363.882812 338.339844 1345.667969 363.851562 C 1329.019531 387.160156 1308.59375 409.039062 1282.25 421.273438 C 1252.160156 435.242188 1218.222656 432.867188 1186.042969 436.441406 C 1159.898438 439.34375 1131.496094 446.984375 1113.332031 467.316406 C 1111.113281 469.804688 1109.085938 472.4375 1107.25 475.21875 C 1105.460938 477.910156 1109.796875 480.421875 1111.589844 477.746094 Z M 1111.578125 477.746094 " fill-opacity="1" fill-rule="nonzero"/><path fill="#ffcfcf" d="M 812.417969 578.792969 C 807.484375 585.621094 803.097656 592.78125 799.253906 600.273438 C 795.34375 607.898438 792.011719 615.769531 789.253906 623.882812 C 786.550781 631.824219 784.4375 639.917969 782.910156 648.167969 C 781.34375 656.601562 780.398438 665.105469 780.070312 673.675781 C 779.753906 682.089844 780.074219 690.480469 781.035156 698.84375 C 781.152344 699.859375 781.277344 700.875 781.410156 701.886719 C 781.503906 702.578125 781.632812 703.144531 782.144531 703.660156 C 782.636719 704.144531 783.226562 704.386719 783.914062 704.390625 C 785.125 704.335938 786.605469 703.277344 786.421875 701.886719 C 785.316406 693.605469 784.839844 685.289062 784.992188 676.9375 C 785.0625 672.753906 785.292969 668.574219 785.679688 664.402344 C 785.871094 662.335938 786.09375 660.273438 786.347656 658.214844 C 786.378906 657.976562 786.398438 657.742188 786.441406 657.507812 C 786.335938 658.140625 786.46875 657.285156 786.488281 657.171875 C 786.5625 656.636719 786.640625 656.09375 786.722656 655.554688 C 786.871094 654.554688 787.027344 653.550781 787.199219 652.53125 C 788.585938 644.25 790.566406 636.113281 793.136719 628.117188 C 794.40625 624.164062 795.816406 620.257812 797.363281 616.40625 C 797.554688 615.929688 797.75 615.457031 797.941406 614.984375 C 798.03125 614.765625 798.121094 614.542969 798.214844 614.316406 C 798.269531 614.195312 798.320312 614.066406 798.375 613.941406 C 798.238281 614.261719 798.304688 614.113281 798.398438 613.882812 C 798.796875 612.941406 799.207031 612.007812 799.621094 611.074219 C 800.46875 609.179688 801.351562 607.300781 802.265625 605.4375 C 805.957031 597.90625 810.199219 590.699219 814.980469 583.808594 C 815.566406 582.972656 816.160156 582.140625 816.753906 581.3125 C 817.527344 580.246094 816.972656 578.476562 815.855469 577.886719 C 814.558594 577.199219 813.25 577.644531 812.429688 578.785156 Z M 812.417969 578.792969 " fill-opacity="1" fill-rule="nonzero"/><path fill="#ffcfcf" d="M 786.160156 718.984375 C 787.46875 718.984375 788.726562 717.832031 788.664062 716.480469 C 788.660156 716.148438 788.59375 715.832031 788.464844 715.527344 C 788.335938 715.222656 788.152344 714.953125 787.917969 714.71875 C 787.6875 714.488281 787.417969 714.304688 787.113281 714.175781 C 786.808594 714.046875 786.492188 713.980469 786.160156 713.976562 C 784.851562 713.976562 783.59375 715.128906 783.65625 716.480469 C 783.660156 716.8125 783.726562 717.128906 783.855469 717.433594 C 783.984375 717.738281 784.167969 718.003906 784.402344 718.238281 C 784.632812 718.472656 784.902344 718.65625 785.207031 718.785156 C 785.511719 718.914062 785.828125 718.980469 786.160156 718.984375 Z M 786.160156 718.984375 " fill-opacity="1" fill-rule="nonzero"/><g clip-path="url(#7662a92b2d)"><path fill="#cc7552" d="M 1378.492188 774.777344 C 1382.757812 770.820312 1387.367188 766.984375 1392.878906 765.117188 C 1396.050781 764.042969 1399.40625 763.664062 1402.710938 763.144531 C 1408.480469 762.242188 1414.230469 760.886719 1419.515625 758.394531 C 1424.796875 755.90625 1429.613281 752.210938 1432.785156 747.300781 C 1436.355469 741.777344 1437.714844 734.988281 1440.335938 729.003906 L 1356.335938 729.003906 L 1356.335938 788.996094 C 1359.382812 788.554688 1362.382812 787.414062 1365.050781 785.871094 C 1370.09375 782.957031 1374.222656 778.738281 1378.492188 774.777344 " fill-opacity="1" fill-rule="nonzero"/></g><g clip-path="url(#af742b4446)"><path fill="#cc7552" d="M 1271.519531 774.777344 C 1275.789062 770.820312 1280.394531 766.984375 1285.910156 765.117188 C 1289.078125 764.042969 1292.433594 763.664062 1295.742188 763.144531 C 1301.511719 762.242188 1307.261719 760.886719 1312.542969 758.394531 C 1317.824219 755.90625 1322.644531 752.210938 1325.816406 747.300781 C 1329.382812 741.777344 1330.742188 734.988281 1333.363281 729.003906 L 1249.363281 729.003906 L 1249.363281 788.996094 C 1252.410156 788.554688 1255.410156 787.414062 1258.082031 785.871094 C 1263.121094 782.957031 1267.25 778.738281 1271.519531 774.777344 " fill-opacity="1" fill-rule="nonzero"/></g></svg>